<?xml version="1.0" encoding="UTF-8"?>
<svg version="1.1" xmlns="http://www.w3.org/2000/svg" width="190" height="95">
<path d="M0 0 C-0.33 1.98 -0.66 3.96 -1 6 C0.3921875 5.9071875 0.3921875 5.9071875 1.8125 5.8125 C5 6 5 6 6.875 7.5 C7.24625 7.995 7.6175 8.49 8 9 C8 7.02 8 5.04 8 3 C10.64 1.68 13.28 0.36 16 -1 C16.66 1.31 17.32 3.62 18 6 C18.721875 5.835 19.44375 5.67 20.1875 5.5 C23 6 23 6 24.4453125 7.78125 C25.70314992 9.82254045 26.88633253 11.8769233 28 14 C28.66 13.34 29.32 12.68 30 12 C30 10.68 30 9.36 30 8 C32 6 32 6 35.8125 5.625 C39.97028498 5.70073379 42.03394865 7.03394865 45 10 C45.86625 9.01 45.86625 9.01 46.75 8 C49 6 49 6 53 6 C53.0825 5.38125 53.165 4.7625 53.25 4.125 C54 2 54 2 55.8125 0.75 C58 0 58 0 62 0 C62.495 4.455 62.495 4.455 63 9 C63.515625 8.505 64.03125 8.01 64.5625 7.5 C67.90028661 5.44597747 70.14399755 5.58685688 74 6 C76.4375 7.5 76.4375 7.5 78 9 C78.495 8.505 78.99 8.01 79.5 7.5 C82.98891974 5.40664815 86.01722928 5.4815815 90 6 C91.33333333 6.66666667 92.66666667 7.33333333 94 8 C94.59167969 7.69578125 95.18335938 7.3915625 95.79296875 7.078125 C98.36884598 5.81982037 100.20748989 5.66806199 103.0625 5.625 C104.34833984 5.58246094 104.34833984 5.58246094 105.66015625 5.5390625 C108 6 108 6 109.78125 7.8046875 C111.57634052 11.03815184 111.45388145 13.36894838 111 17 C109.3125 19.4375 109.3125 19.4375 107 21 C104.25 21.25 104.25 21.25 102 21 C102.185625 21.804375 102.37125 22.60875 102.5625 23.4375 C102.7790625 24.7059375 102.7790625 24.7059375 103 26 C102 27 102 27 100.15234375 27.09765625 C98.1015625 27.06510417 96.05078125 27.03255208 94 27 C92.8422494 23.52674819 92.93133348 20.63932552 93 17 C92.319375 17.680625 91.63875 18.36125 90.9375 19.0625 C88 21 88 21 84.4375 20.8125 C82.54901401 20.36613058 80.66374564 19.89432006 78.8125 19.3125 C76.92601702 18.79274834 76.92601702 18.79274834 75.17578125 20.0078125 C72.55818738 21.2014729 71.18500001 21.01830268 68.375 20.5625 C65.0720104 19.93937628 65.0720104 19.93937628 62 21 C60.23132545 21.09683564 58.45881697 21.12979382 56.6875 21.125 C55.74261719 21.12757812 54.79773438 21.13015625 53.82421875 21.1328125 C51.11433313 21.00537666 48.65164224 20.53854352 46 20 C45.34 20.165 44.68 20.33 44 20.5 C42 21 42 21 39.5625 20.5 C36.69322648 19.94014175 34.83422186 20.41862116 32 21 C30.66666667 20.66666667 29.33333333 20.33333333 28 20 C27.175 20.185625 26.35 20.37125 25.5 20.5625 C23 21 23 21 20.9375 19.9375 C20.298125 19.628125 19.65875 19.31875 19 19 C18.39027344 19.3196875 17.78054687 19.639375 17.15234375 19.96875 C14.5898616 21.19650914 13.39036137 21.03309658 10.625 20.5625 C7.98765094 20.11983541 6.05347127 19.99067268 3.40234375 20.453125 C-1.42288959 21.22870786 -6.1833359 21.18427943 -11.0625 21.1875 C-12.04283203 21.19974609 -13.02316406 21.21199219 -14.03320312 21.22460938 C-15.45729492 21.22750977 -15.45729492 21.22750977 -16.91015625 21.23046875 C-17.76746338 21.23457764 -18.62477051 21.23868652 -19.50805664 21.24291992 C-22.34785505 20.96609035 -24.45739753 20.28793042 -27 19 C-27.92578125 16.6171875 -27.92578125 16.6171875 -28.3125 13.875 C-28.45300781 12.96492188 -28.59351563 12.05484375 -28.73828125 11.1171875 C-28.82464844 10.41851562 -28.91101562 9.71984375 -29 9 C-24.68571429 5.91836735 -24.68571429 5.91836735 -21.375 6.3125 C-20.199375 6.6528125 -20.199375 6.6528125 -19 7 C-15.88772805 7 -13.05847848 6.54372951 -10 6 C-9.95875 5.401875 -9.9175 4.80375 -9.875 4.1875 C-9 2 -9 2 -6.125 0.1875 C-3 -1 -3 -1 0 0 Z M-10 7 C-10 10.3 -10 13.6 -10 17 C-9.67 17 -9.34 17 -9 17 C-7.80011955 11.71800407 -7.80011955 11.71800407 -10 7 Z M-1 9 C-1 11.64 -1 14.28 -1 17 C-0.34 17 0.32 17 1 17 C2.01540112 12.89776415 2.01540112 12.89776415 1 9 C0.34 9 -0.32 9 -1 9 Z M18 9 C16.64560332 11.70879335 16.93498549 14.00933268 17 17 C17.99 17.495 17.99 17.495 19 18 C19 15.03 19 12.06 19 9 C18.67 9 18.34 9 18 9 Z M36 9 C37 11 37 11 37 11 Z M53 9 C51.64381501 10.12534105 51.64381501 10.12534105 51.9375 13.0625 C51.958125 14.031875 51.97875 15.00125 52 16 C52.99 16.495 52.99 16.495 54 17 C54.33 14.69 54.66 12.38 55 10 C54.34 9.67 53.68 9.34 53 9 Z M70 9 C71 11 71 11 71 11 Z M103 10 C102.67 12.64 102.34 15.28 102 18 C104.1519437 14.77208445 104.20086443 13.71599191 104 10 C103.67 10 103.34 10 103 10 Z M-20 11 C-20 12.98 -20 14.96 -20 17 C-19.34 17 -18.68 17 -18 17 C-18 15.35 -18 13.7 -18 12 C-18.66 11.67 -19.32 11.34 -20 11 Z M36 14 C36 17 36 17 36 17 Z " fill="#FBFBFB" transform="translate(71,29)"/>
<path d="M0 0 C0 1.65 0 3.3 0 5 C1.0725 5.12375 2.145 5.2475 3.25 5.375 C6.06119123 6.14479881 6.82818113 6.71429542 8.35546875 9.25390625 C9.84202845 12.94078897 11 15.99980632 11 20 C7.89156322 20.88812479 6.42601241 21.1724336 3.375 19.9375 C2.59125 19.628125 1.8075 19.31875 1 19 C0.01 19.66 -0.98 20.32 -2 21 C-4.1640625 20.94140625 -4.1640625 20.94140625 -6.625 20.5625 C-10.23318307 20.09301419 -13.28197423 20.05987177 -16.875 20.625 C-20.69280154 21.17233084 -20.69280154 21.17233084 -23.5625 19.5625 C-24.036875 19.046875 -24.51125 18.53125 -25 18 C-24.34 16.68 -23.68 15.36 -23 14 C-23.66 13.67 -24.32 13.34 -25 13 C-25.1875 10.625 -25.1875 10.625 -25 8 C-21.00706063 5.33804042 -17.69736163 5.27080668 -13 6 C-10.4375 8 -10.4375 8 -9 10 C-9.99 11.485 -9.99 11.485 -11 13 C-10.34 13 -9.68 13 -9 13 C-8.91995518 9.4780279 -8.95994298 6.38018531 -10 3 C-3.375 -1.125 -3.375 -1.125 0 0 Z M0 10 C-0.67801034 12.90073181 -0.67801034 12.90073181 -1 16 C-0.34 16.66 0.32 17.32 1 18 C1.33 15.69 1.66 13.38 2 11 C1.34 10.67 0.68 10.34 0 10 Z " fill="#F8F8F7" transform="translate(32,29)"/>
<path d="M0 0 C1.65 0 3.3 0 5 0 C5.33 1.32 5.66 2.64 6 4 C4.125 5.0625 4.125 5.0625 2 6 C1.34 5.67 0.68 5.34 0 5 C0 3.35 0 1.7 0 0 Z " fill="#D9EAE5" transform="translate(123,63)"/>
<path d="M0 0 C1.65 0.33 3.3 0.66 5 1 C4.6875 2.9375 4.6875 2.9375 4 5 C3.01 5.33 2.02 5.66 1 6 C0.34 5.67 -0.32 5.34 -1 5 C-0.67 3.35 -0.34 1.7 0 0 Z " fill="#D5DDDA" transform="translate(99,63)"/>
<path d="M0 0 C2.475 0.495 2.475 0.495 5 1 C5 2.32 5 3.64 5 5 C3.35 5 1.7 5 0 5 C0 3.35 0 1.7 0 0 Z " fill="#D9E3E0" transform="translate(105,63)"/>
<path d="M0 0 C2.475 0.495 2.475 0.495 5 1 C4.67 2.32 4.34 3.64 4 5 C2.68 5 1.36 5 0 5 C0 3.35 0 1.7 0 0 Z " fill="#E6F3F0" transform="translate(140,63)"/>
<path d="M0 0 C1.32 0 2.64 0 4 0 C3.67 1.32 3.34 2.64 3 4 C1.68 4.33 0.36 4.66 -1 5 C-0.67 3.35 -0.34 1.7 0 0 Z " fill="#DDE7E3" transform="translate(118,63)"/>
<path d="M0 0 C1.32 0 2.64 0 4 0 C4 1.32 4 2.64 4 4 C2.68 4.33 1.36 4.66 0 5 C-0.5625 3.0625 -0.5625 3.0625 -1 1 C-0.67 0.67 -0.34 0.34 0 0 Z " fill="#D8DFDD" transform="translate(93,63)"/>
<path d="M0 0 C1.32 0 2.64 0 4 0 C4 1.65 4 3.3 4 5 C2.68 5 1.36 5 0 5 C0 3.35 0 1.7 0 0 Z " fill="#D2DEDB" transform="translate(135,63)"/>
<path d="M0 0 C0.66 0 1.32 0 2 0 C2.33 1.65 2.66 3.3 3 5 C1.68 5 0.36 5 -1 5 C-0.67 3.35 -0.34 1.7 0 0 Z " fill="#E2EEEB" transform="translate(131,63)"/>
<path d="M0 0 C1.65 0 3.3 0 5 0 C4.67 1.32 4.34 2.64 4 4 C3.01 4 2.02 4 1 4 C0.67 2.68 0.34 1.36 0 0 Z " fill="#DEEDE8" transform="translate(111,64)"/>
</svg>
